HIERARCHY
ROOT Hips
{
	OFFSET 0.000000 83.214638 0.000000
	CHANNELS 6 Xposition Yposition Zposition Xrotation Yrotation Zrotation
	JOINT Pelvis
	{
		OFFSET 0.000000 0.000000 0.000000
		CHANNELS 3 Xrotation Yrotation Zrotation
		JOINT LeftUpLeg
		{
			OFFSET 8.479700 -4.795502 -0.379100
			CHANNELS 3 Xrotation Yrotation Zrotation
			JOINT LeftLeg
			{
				OFFSET 0.024144 -32.555107 0.112900
				CHANNELS 3 Xrotation Yrotation Zrotation
				JOINT LeftFoot
				{
					OFFSET -0.024144 -32.638630 -3.012600
					CHANNELS 3 Xrotation Yrotation Zrotation
					JOINT LeftToeBase
					{
						OFFSET 0.970200 -13.225400 11.864200
						CHANNELS 3 Xrotation Yrotation Zrotation
						End Site
						{
							OFFSET 0.000000 12.319262 0.000000
						}
					}
					JOINT LFootTongue
					{
						OFFSET 1.142400 -1.059800 6.665200
						CHANNELS 3 Xrotation Yrotation Zrotation
						End Site
						{
							OFFSET 0.000000 12.319262 0.000000
						}
					}
				}
				JOINT LeftPantLeg
				{
					OFFSET 0.918482 -16.533964 -2.284700
					CHANNELS 3 Xrotation Yrotation Zrotation
					End Site
					{
						OFFSET 0.350399 24.744368 0.000000
					}
				}
			}
		}
		JOINT RightUpLeg
		{
			OFFSET -8.479700 -4.795502 -0.379100
			CHANNELS 3 Xrotation Yrotation Zrotation
			JOINT RightLeg
			{
				OFFSET -0.023144 -32.555092 0.112900
				CHANNELS 3 Xrotation Yrotation Zrotation
				JOINT RightFoot
				{
					OFFSET 0.023144 -32.638641 -3.012700
					CHANNELS 3 Xrotation Yrotation Zrotation
					JOINT RightToeBase
					{
						OFFSET -0.970200 -13.225400 11.864200
						CHANNELS 3 Xrotation Yrotation Zrotation
						End Site
						{
							OFFSET 0.000000 12.319244 0.000000
						}
					}
					JOINT RFootTongue
					{
						OFFSET -1.142200 -1.059800 6.665200
						CHANNELS 3 Xrotation Yrotation Zrotation
						End Site
						{
							OFFSET 0.000000 12.319243 0.000000
						}
					}
				}
				JOINT RightPantLeg
				{
					OFFSET -0.919482 -16.533978 -2.284800
					CHANNELS 3 Xrotation Yrotation Zrotation
					End Site
					{
						OFFSET -0.350400 24.744419 0.000000
					}
				}
			}
		}
	}
	JOINT Spine
	{
		OFFSET 0.000000 7.722000 1.166200
		CHANNELS 3 Xrotation Yrotation Zrotation
		JOINT Spine1
		{
			OFFSET 0.000000 12.024101 0.248800
			CHANNELS 3 Xrotation Yrotation Zrotation
			JOINT Spine2
			{
				OFFSET 0.000000 11.502998 -0.491200
				CHANNELS 3 Xrotation Yrotation Zrotation
				JOINT Neck
				{
					OFFSET 0.000000 18.430702 -3.123100
					CHANNELS 3 Xrotation Yrotation Zrotation
					JOINT Head
					{
						OFFSET 0.000000 9.051102 1.034000
						CHANNELS 3 Xrotation Yrotation Zrotation
						JOINT HairB
						{
							OFFSET 0.208400 24.786102 24.822300
							CHANNELS 3 Xrotation Yrotation Zrotation
							End Site
							{
								OFFSET 0.000000 32.263779 0.000000
							}
						}
						JOINT HairA
						{
							OFFSET -7.081100 24.428299 23.196600
							CHANNELS 3 Xrotation Yrotation Zrotation
							End Site
							{
								OFFSET 0.000000 32.263779 0.000000
							}
						}
						JOINT Hat
						{
							OFFSET 16.728800 15.048294 -15.439601
							CHANNELS 3 Xrotation Yrotation Zrotation
							End Site
							{
								OFFSET 0.000000 32.263779 0.000000
							}
						}
					}
				}
				JOINT LeftShoulder
				{
					OFFSET 6.197800 13.665199 -4.064700
					CHANNELS 3 Xrotation Yrotation Zrotation
					JOINT LeftArm
					{
						OFFSET 7.778100 -0.187103 -1.709300
						CHANNELS 3 Xrotation Yrotation Zrotation
						JOINT LeftForeArm
						{
							OFFSET 22.049376 0.000000 0.000000
							CHANNELS 3 Xrotation Yrotation Zrotation
							JOINT LeftHand
							{
								OFFSET 23.009392 0.000000 0.000000
								CHANNELS 3 Xrotation Yrotation Zrotation
								JOINT LeftHandThumb1
								{
									OFFSET 3.507191 -2.063065 3.133727
									CHANNELS 3 Xrotation Yrotation Zrotation
									JOINT LeftHandThumb2
									{
										OFFSET 3.101337 -1.790558 1.790558
										CHANNELS 3 Xrotation Yrotation Zrotation
										JOINT LeftHandThumb3
										{
											OFFSET 3.058640 -1.765907 1.765906
											CHANNELS 3 Xrotation Yrotation Zrotation
											End Site
											{
												OFFSET -0.415260 3.926476 -0.049563
											}
										}
									}
								}
								JOINT LeftHandIndex1
								{
									OFFSET 11.334419 -0.901459 3.706815
									CHANNELS 3 Xrotation Yrotation Zrotation
									JOINT LeftHandIndex2
									{
										OFFSET 3.283112 0.000000 0.000000
										CHANNELS 3 Xrotation Yrotation Zrotation
										JOINT LeftHandIndex3
										{
											OFFSET 3.323853 0.000000 0.000000
											CHANNELS 3 Xrotation Yrotation Zrotation
											End Site
											{
												OFFSET -1.135597 3.097809 0.402452
											}
										}
									}
								}
								JOINT LeftHandMiddle1
								{
									OFFSET 11.335861 0.000000 0.000000
									CHANNELS 3 Xrotation Yrotation Zrotation
									JOINT LeftHandMiddle2
									{
										OFFSET 3.410492 0.000000 0.000000
										CHANNELS 3 Xrotation Yrotation Zrotation
										JOINT LeftHandMiddle3
										{
											OFFSET 3.312172 0.000000 0.000000
											CHANNELS 3 Xrotation Yrotation Zrotation
											End Site
											{
												OFFSET -1.150200 3.080154 0.400270
											}
										}
									}
								}
								JOINT LeftHandRing1
								{
									OFFSET 11.514786 -0.013176 -3.003090
									CHANNELS 3 Xrotation Yrotation Zrotation
									JOINT LeftHandRing2
									{
										OFFSET 3.053307 0.000000 0.000000
										CHANNELS 3 Xrotation Yrotation Zrotation
										JOINT LeftHandRing3
										{
											OFFSET 3.295807 0.000000 0.000000
											CHANNELS 3 Xrotation Yrotation Zrotation
											End Site
											{
												OFFSET -1.281006 3.013344 0.375733
											}
										}
									}
								}
								JOINT LeftHandPinky1
								{
									OFFSET 10.518692 -0.960396 -5.730441
									CHANNELS 3 Xrotation Yrotation Zrotation
									JOINT LeftHandPinky2
									{
										OFFSET 2.861649 0.000000 0.000000
										CHANNELS 3 Xrotation Yrotation Zrotation
										JOINT LeftHandPinky3
										{
											OFFSET 2.863380 0.000000 0.000000
											CHANNELS 3 Xrotation Yrotation Zrotation
											End Site
											{
												OFFSET -0.843597 2.711159 0.369971
											}
										}
									}
								}
							}
							JOINT LSleeve
							{
								OFFSET 6.676277 -0.344902 -1.011730
								CHANNELS 3 Xrotation Yrotation Zrotation
								End Site
								{
									OFFSET 0.000000 14.885353 0.000000
								}
							}
						}
					}
				}
				JOINT RightShoulder
				{
					OFFSET -6.197800 13.665199 -4.064700
					CHANNELS 3 Xrotation Yrotation Zrotation
					JOINT RightArm
					{
						OFFSET -7.778100 -0.187103 -1.709300
						CHANNELS 3 Xrotation Yrotation Zrotation
						JOINT RightForeArm
						{
							OFFSET -22.049376 0.000000 0.000000
							CHANNELS 3 Xrotation Yrotation Zrotation
							JOINT RightHand
							{
								OFFSET -23.009392 0.000000 0.000000
								CHANNELS 3 Xrotation Yrotation Zrotation
								JOINT RightHandThumb1
								{
									OFFSET -3.507191 -2.063065 3.133727
									CHANNELS 3 Xrotation Yrotation Zrotation
									JOINT RightHandThumb2
									{
										OFFSET -3.101337 -1.790558 1.790558
										CHANNELS 3 Xrotation Yrotation Zrotation
										JOINT RightHandThumb3
										{
											OFFSET -3.058640 -1.765907 1.765906
											CHANNELS 3 Xrotation Yrotation Zrotation
											End Site
											{
												OFFSET 0.415260 3.926476 -0.049563
											}
										}
									}
								}
								JOINT RightHandIndex1
								{
									OFFSET -11.334419 -0.901459 3.706815
									CHANNELS 3 Xrotation Yrotation Zrotation
									JOINT RightHandIndex2
									{
										OFFSET -3.283112 0.000000 0.000000
										CHANNELS 3 Xrotation Yrotation Zrotation
										JOINT RightHandIndex3
										{
											OFFSET -3.323853 0.000000 0.000000
											CHANNELS 3 Xrotation Yrotation Zrotation
											End Site
											{
												OFFSET 1.135597 3.097809 0.402452
											}
										}
									}
								}
								JOINT RightHandMiddle1
								{
									OFFSET -11.335861 0.000000 0.000000
									CHANNELS 3 Xrotation Yrotation Zrotation
									JOINT RightHandMiddle2
									{
										OFFSET -3.410492 0.000000 0.000000
										CHANNELS 3 Xrotation Yrotation Zrotation
										JOINT RightHandMiddle3
										{
											OFFSET -3.312172 0.000000 0.000000
											CHANNELS 3 Xrotation Yrotation Zrotation
											End Site
											{
												OFFSET 1.150200 3.080154 0.400270
											}
										}
									}
								}
								JOINT RightHandRing1
								{
									OFFSET -11.514786 -0.013176 -3.003090
									CHANNELS 3 Xrotation Yrotation Zrotation
									JOINT RightHandRing2
									{
										OFFSET -3.053307 0.000000 0.000000
										CHANNELS 3 Xrotation Yrotation Zrotation
										JOINT RightHandRing3
										{
											OFFSET -3.295807 0.000000 0.000000
											CHANNELS 3 Xrotation Yrotation Zrotation
											End Site
											{
												OFFSET 1.281006 3.013344 0.375733
											}
										}
									}
								}
								JOINT RightHandPinky1
								{
									OFFSET -10.518692 -0.960396 -5.730441
									CHANNELS 3 Xrotation Yrotation Zrotation
									JOINT RightHandPinky2
									{
										OFFSET -2.861649 0.000000 0.000000
										CHANNELS 3 Xrotation Yrotation Zrotation
										JOINT RightHandPinky3
										{
											OFFSET -2.863380 0.000000 0.000000
											CHANNELS 3 Xrotation Yrotation Zrotation
											End Site
											{
												OFFSET 0.843597 2.711159 0.369971
											}
										}
									}
								}
							}
							JOINT RSleeve
							{
								OFFSET -6.676277 -0.344902 -1.011730
								CHANNELS 3 Xrotation Yrotation Zrotation
								End Site
								{
									OFFSET 0.000000 14.885353 0.000000
								}
							}
						}
					}
				}
				JOINT Backpack
				{
					OFFSET 0.000000 -2.471497 36.677502
					CHANNELS 3 Xrotation Yrotation Zrotation
					End Site
					{
						OFFSET 0.000000 20.427315 0.000000
					}
				}
				JOINT Hood
				{
					OFFSET 0.000000 18.754097 -10.431000
					CHANNELS 3 Xrotation Yrotation Zrotation
					JOINT Hood1
					{
						OFFSET 0.000000 -5.011002 -7.685901
						CHANNELS 3 Xrotation Yrotation Zrotation
						End Site
						{
							OFFSET 0.000000 9.175140 0.000000
						}
					}
				}
				JOINT LHoodieString
				{
					OFFSET 5.250500 16.397697 3.089900
					CHANNELS 3 Xrotation Yrotation Zrotation
					JOINT LHoodieString1
					{
						OFFSET 0.257700 -6.364304 3.694600
						CHANNELS 3 Xrotation Yrotation Zrotation
						JOINT LHoodieString2
						{
							OFFSET 0.000000 -9.643799 2.679100
							CHANNELS 3 Xrotation Yrotation Zrotation
							End Site
							{
								OFFSET 0.000000 10.009018 0.000000
							}
						}
					}
				}
				JOINT RHoodieString
				{
					OFFSET -5.250500 16.397697 3.089900
					CHANNELS 3 Xrotation Yrotation Zrotation
					JOINT RHoodieString1
					{
						OFFSET -0.257700 -6.364304 3.694600
						CHANNELS 3 Xrotation Yrotation Zrotation
						JOINT RHoodieString2
						{
							OFFSET 0.000000 -9.643799 2.679100
							CHANNELS 3 Xrotation Yrotation Zrotation
							End Site
							{
								OFFSET 0.000000 10.009018 0.000000
							}
						}
					}
				}
			}
			JOINT LBackpack_Strap
			{
				OFFSET 15.223200 -7.719803 -6.610900
				CHANNELS 3 Xrotation Yrotation Zrotation
				End Site
				{
					OFFSET 0.000000 16.040596 0.000000
				}
			}
			JOINT RBackpack_Strap
			{
				OFFSET -15.223000 -7.719803 -6.610900
				CHANNELS 3 Xrotation Yrotation Zrotation
				End Site
				{
					OFFSET 0.000000 16.040596 0.000000
				}
			}
		}
	}
	JOINT BoyFacialAnim_Joint
	{
		OFFSET 1.000000 -82.208099 -1.550900
		CHANNELS 3 Xrotation Yrotation Zrotation
		End Site
		{
			OFFSET 0.000000 30.012791 0.000000
		}
	}
}
MOTION
Frames: 5
Frame Time: 0.033333
2.218233 112.776886 -3.964663 11.589799 -18.973620 1.424778 0.000000 0.000001 -0.000000 -88.138277 8.386426 27.216487 106.798621 -18.575323 -3.844839 1.418513 2.932462 -9.241858 0.000002 0.000000 -0.000001 0.000002 0.000000 -0.000001 -0.000001 0.000001 0.000002 -94.908518 -11.699490 -23.740081 118.114024 14.654632 0.769571 -12.773298 1.226441 2.990824 0.000001 0.000001 0.000001 0.000001 0.000001 0.000001 -0.000001 -0.000000 -0.000001 12.387156 2.199586 1.105726 13.016691 1.357503 1.289794 1.210602 -0.579208 1.514108 -6.067306 2.749848 7.574657 -8.159100 8.272095 -8.219460 -0.000001 0.000001 -0.000000 -0.000001 0.000001 -0.000000 -0.000001 0.000001 -0.000000 2.926117 -20.700425 0.636025 -24.328770 21.882849 -23.706350 -46.264385 -69.286737 -48.450179 5.765661 5.844347 27.217993 7.718582 -12.473745 17.780232 7.139146 22.601113 -10.373157 -0.000001 0.000000 0.000001 -1.122237 -0.194732 -26.739234 -0.341046 -1.631671 -37.866668 -0.000003 0.000002 -0.000005 -0.405400 -3.232167 -40.834890 -0.871409 -2.091686 -45.643839 -0.000000 -0.000000 0.000002 -6.380170 3.247052 -49.936145 -1.275072 -2.484616 -54.589372 0.000000 0.000001 -0.000002 -7.231984 3.680753 -57.089272 -1.063052 -2.421226 -51.119202 -0.000002 0.000001 0.000002 -0.000002 -0.000000 0.000001 7.944135 20.662159 -5.980045 -38.128226 7.327844 22.546407 69.534427 66.162151 -43.289596 -21.636905 -19.292322 -15.346662 5.731108 17.868301 -18.183417 3.686750 -18.483788 9.357528 -0.000000 -0.000000 0.000000 0.055128 7.408962 2.909833 0.155326 0.579260 12.652310 -0.000002 0.000000 0.000002 0.075207 3.464665 12.396258 -0.066979 0.658266 12.989056 -0.000001 -0.000000 0.000001 -0.154060 -0.650136 17.661305 -0.112571 0.846512 16.147402 0.000001 -0.000001 0.000002 4.008262 -8.959816 21.504881 -0.591042 0.603794 13.902835 -0.000002 -0.000003 0.000003 0.000001 -0.000000 0.000003 0.000005 0.000001 -0.000001 0.000005 0.000001 -0.000001 0.000005 0.000001 -0.000001 0.000005 0.000001 -0.000001 0.000005 0.000001 0.000001 0.000003 -0.000001 0.000001 0.000005 0.000001 -0.000001 0.000005 0.000001 0.000001 0.000003 -0.000001 0.000001 0.000000 0.000000 -0.000001 0.000000 0.000000 -0.000001 0.000000 0.000001 -0.000000 
2.174911 112.279686 -2.998035 14.311212 -19.699008 3.103990 -0.000000 -0.000000 0.000000 -80.576828 9.106042 24.771590 98.259798 -12.933900 -4.761157 2.361813 3.846543 -9.066408 0.000001 0.000000 -0.000001 0.000001 0.000000 -0.000000 -0.000000 -0.000000 -0.000000 -88.586734 -11.139703 -22.951372 109.715193 15.721625 1.341868 -13.855741 1.736475 4.297826 -0.000001 0.000000 -0.000000 -0.000001 0.000000 -0.000000 0.000003 -0.000001 0.000000 11.439874 2.376641 0.958550 11.117016 1.712881 0.974541 -0.699060 -0.166737 1.278539 -6.668853 1.616161 9.508925 -6.531494 8.192374 -9.559982 -0.000002 -0.000000 0.000001 -0.000002 -0.000000 0.000001 -0.000002 -0.000000 0.000001 2.217439 -20.649156 0.033770 -25.885287 23.681446 -21.546132 -32.453398 -74.361410 -39.076670 7.845847 -0.343401 24.908667 7.464655 -13.286747 17.789125 6.801595 22.200195 -10.247998 0.000000 0.000000 -0.000000 -1.354381 -0.839979 -24.855596 -0.280994 -1.551362 -35.709527 -0.000001 0.000002 -0.000005 -0.421552 -3.287998 -38.611684 -0.774311 -1.992074 -42.916268 -0.000001 0.000004 -0.000004 -6.098831 2.991347 -47.390766 -1.139356 -2.382378 -51.394585 0.000002 -0.000004 -0.000001 -5.992739 3.811171 -54.077470 -0.984472 -2.259091 -48.070697 0.000001 -0.000002 0.000001 -0.000001 0.000001 -0.000002 6.876444 20.425575 -4.426681 -34.227990 8.186766 19.903974 79.082225 67.179883 -50.711942 -25.213771 -17.031085 -18.193411 5.004943 20.847196 -18.031283 3.190249 -17.872477 9.232086 -0.000001 -0.000000 0.000001 -0.026268 8.326540 2.624302 0.168762 0.515741 11.256640 0.000000 -0.000001 0.000005 0.036274 3.921591 12.382119 -0.052807 0.593257 11.686222 0.000000 -0.000000 -0.000000 -0.459995 -1.402511 17.550060 -0.092669 0.774360 14.740989 -0.000000 -0.000001 0.000004 4.639940 -11.899220 20.789562 -0.761343 0.518396 12.866422 -0.000003 -0.000004 0.000003 0.000001 0.000001 -0.000004 0.000003 -0.000001 -0.000000 0.000003 -0.000001 -0.000000 0.000003 -0.000001 -0.000000 0.000003 -0.000001 -0.000000 0.000003 -0.000001 -0.000000 0.000003 -0.000000 -0.000000 0.000003 -0.000001 -0.000000 0.000003 -0.000001 -0.000000 0.000003 -0.000000 -0.000000 0.000003 0.000001 -0.000001 0.000003 0.000001 -0.000001 -0.000000 -0.000000 0.000000 
2.097327 111.319839 -1.733747 16.203362 -20.149593 4.464467 -0.000001 0.000000 -0.000000 -72.619350 9.901645 21.567991 88.486637 -8.358992 -5.400299 5.054383 4.618015 -8.147549 -0.000000 -0.000001 0.000001 -0.000000 -0.000001 0.000001 -0.000002 -0.000000 -0.000001 -80.871919 -11.314146 -22.997001 99.487969 16.447942 2.044419 -14.313613 2.715382 4.634072 0.000002 0.000000 0.000002 0.000002 0.000000 0.000002 -0.000000 -0.000001 0.000001 10.636169 2.510283 0.759850 9.504973 1.938839 0.524848 -2.325505 0.146673 0.885033 -7.413721 0.330596 11.741656 -4.820075 8.291089 -11.707984 0.000001 -0.000000 0.000000 0.000001 -0.000000 0.000000 0.000001 -0.000000 0.000000 1.655770 -20.496592 -0.111161 -28.039337 25.577568 -17.825399 -19.925658 -79.555919 -31.746002 8.944239 -4.772896 26.310000 7.091348 -14.486182 17.803170 6.305144 21.608420 -10.072934 -0.000001 -0.000001 0.000001 -1.612285 -1.818733 -22.081351 -0.198056 -1.428999 -32.530791 0.000001 0.000002 -0.000003 -0.431707 -3.380923 -35.334949 -0.640128 -1.837192 -38.897316 0.000003 0.000001 -0.000003 -5.650470 2.663458 -43.639544 -0.950239 -2.218402 -46.687311 0.000000 -0.000001 0.000001 -4.218799 4.248806 -49.661151 -0.890568 -2.018894 -43.578963 -0.000001 0.000005 -0.000001 -0.000001 -0.000000 -0.000001 5.935568 19.336170 -2.718852 -29.818721 10.177947 18.330503 80.752309 67.765572 -52.390454 -25.949094 -13.631367 -20.252383 4.564746 22.662904 -17.950746 2.888163 -17.501376 9.161418 0.000002 0.000000 -0.000001 -0.118800 8.882430 2.459007 0.176148 0.477004 10.408798 -0.000001 -0.000001 0.000003 0.029231 4.203053 12.376163 -0.044902 0.553672 10.894801 0.000003 0.000000 0.000003 -0.856913 -1.924940 17.470811 -0.081459 0.730362 13.886702 -0.000000 0.000002 0.000002 4.755890 -13.777416 20.306352 -0.865881 0.469668 12.236672 -0.000005 -0.000002 0.000003 -0.000001 -0.000001 -0.000001 -0.000001 0.000001 -0.000001 -0.000001 0.000001 -0.000001 -0.000001 0.000001 -0.000001 -0.000001 0.000001 -0.000001 -0.000001 0.000001 -0.000001 -0.000002 0.000000 -0.000000 -0.000001 0.000001 -0.000001 -0.000001 0.000001 -0.000001 -0.000002 0.000000 -0.000000 -0.000003 0.000000 -0.000000 -0.000003 0.000000 -0.000000 -0.000001 0.000000 -0.000000 
1.887493 109.784103 -0.308615 17.092140 -20.584298 5.496707 -0.000000 -0.000000 -0.000000 -64.541292 10.746844 18.208495 78.096561 -4.887572 -5.640812 7.875418 5.177879 -4.016953 -0.000003 0.000000 -0.000000 -0.000003 0.000000 -0.000000 -0.000000 -0.000000 0.000000 -71.830962 -11.280886 -22.050134 88.110485 14.398956 2.632936 -12.531562 4.057080 4.098616 -0.000000 0.000002 -0.000002 -0.000000 0.000002 -0.000002 -0.000001 0.000002 -0.000000 10.092927 2.567285 0.559008 8.412846 2.043989 0.111864 -3.430394 0.334398 0.502704 -7.801291 -0.181045 12.398553 -3.380329 8.178541 -12.889901 0.000002 0.000000 -0.000001 0.000002 0.000000 -0.000001 0.000002 0.000000 -0.000001 1.061663 -19.088478 -0.097247 -26.956764 24.928476 -15.168395 -30.540286 -83.086198 -43.375697 9.408860 -6.150217 28.565050 6.639417 -15.944617 17.821900 5.703625 20.888503 -9.875251 -0.000001 0.000000 0.000002 -1.787421 -3.041789 -18.711795 -0.106703 -1.274427 -28.671403 -0.000001 0.000001 -0.000003 -0.420445 -3.508725 -31.355414 -0.492283 -1.637006 -34.018095 0.000003 -0.000001 0.000004 -5.058755 2.349248 -39.084559 -0.739772 -1.999301 -40.972877 0.000001 -0.000000 -0.000006 -2.190326 5.160457 -44.349214 -0.810115 -1.727359 -38.125689 0.000001 -0.000002 0.000001 -0.000000 0.000000 -0.000002 5.177493 17.910650 -1.270336 -25.649375 12.327226 18.188864 74.991092 68.507535 -51.475225 -23.438071 -10.922431 -18.921671 4.530208 22.835472 -17.938402 2.880092 -17.491657 9.160984 -0.000000 -0.000001 0.000000 -0.260610 8.888512 2.653885 0.175238 0.481885 10.515568 0.000001 0.000000 0.000002 0.049538 4.241346 12.619559 -0.046621 0.562430 11.069623 0.000001 0.000000 0.000001 -1.354476 -2.107352 17.711534 -0.084247 0.741340 14.101591 0.000001 -0.000000 0.000004 4.299584 -14.048646 20.420498 -0.875972 0.476562 12.468570 -0.000002 0.000000 -0.000001 0.000000 -0.000001 -0.000005 0.000001 0.000000 0.000000 0.000001 0.000000 0.000000 0.000001 0.000000 0.000000 0.000001 0.000000 0.000000 0.000001 0.000000 0.000000 0.000001 0.000001 0.000001 0.000001 0.000000 0.000000 0.000001 0.000000 0.000000 0.000001 0.000001 0.000001 0.000003 -0.000000 0.000000 0.000003 -0.000000 0.000000 -0.000000 -0.000000 -0.000000 
1.513357 107.286278 1.154760 16.894714 -21.263069 6.213692 -0.000002 0.000001 -0.000000 -56.264284 11.403039 15.382225 67.897196 -1.453149 -4.943388 10.449892 5.942754 -1.893135 -0.000001 0.000000 -0.000000 -0.000001 0.000000 -0.000000 -0.000001 -0.000000 0.000000 -62.083612 -10.805614 -20.736890 76.270468 12.459242 3.028925 -7.502508 5.405336 3.123404 -0.000002 -0.000002 -0.000000 -0.000002 -0.000002 -0.000000 0.000001 -0.000003 0.000002 9.971516 2.398812 0.501663 8.165467 1.756729 0.062863 -3.679006 0.063330 0.395718 -7.056817 0.523149 10.949311 -3.073552 7.779761 -11.713108 0.000000 0.000001 -0.000000 0.000000 0.000001 -0.000000 0.000000 0.000001 -0.000000 0.733096 -15.321069 -0.310636 -25.833700 22.847177 -13.860805 -56.206419 -85.428769 -67.894867 7.714784 -6.011456 29.744705 6.149094 -17.534165 17.844300 5.049519 20.104383 -9.680575 -0.000001 -0.000001 -0.000001 -1.800433 -4.400478 -15.038289 -0.019336 -1.099768 -24.471943 0.000000 -0.000002 -0.000000 -0.376471 -3.663089 -27.023782 -0.351440 -1.405781 -28.709501 -0.000001 -0.000004 0.000003 -4.363129 2.116571 -34.129038 -0.536789 -1.738357 -34.755944 -0.000002 0.000004 -0.000003 -0.196829 6.596888 -38.649793 -0.762785 -1.414773 -32.192106 0.000000 0.000001 0.000002 -0.000001 0.000001 -0.000000 4.667462 17.926649 -3.634315 -23.589908 13.459823 21.140643 70.602183 69.331071 -52.091493 -21.568084 -9.746093 -17.755454 4.723828 22.199561 -17.925920 3.139902 -17.804650 9.213997 0.000000 0.000001 0.000000 -0.600119 8.369750 4.161310 0.159978 0.558140 12.186258 -0.000002 0.000001 0.000002 0.001491 4.178754 14.352384 -0.069198 0.667820 13.181049 0.000002 0.000002 -0.000002 -1.970169 -2.103488 19.662436 -0.118966 0.868290 16.573656 -0.000001 0.000001 -0.000005 3.687113 -13.086671 22.485083 -0.843108 0.578777 14.830069 0.000001 -0.000004 0.000001 0.000001 -0.000000 0.000000 -0.000001 -0.000001 0.000001 -0.000001 -0.000001 0.000001 -0.000001 -0.000001 0.000001 -0.000001 -0.000001 0.000001 -0.000001 -0.000001 0.000001 -0.000003 -0.000001 0.000001 -0.000001 -0.000001 0.000001 -0.000001 -0.000001 0.000001 -0.000003 -0.000001 0.000001 0.000000 -0.000000 -0.000000 0.000000 -0.000000 -0.000000 -0.000002 0.000001 -0.000000 
